<svg width="66" height="66" viewBox="0 0 66 66" fill="none" xmlns="http://www.w3.org/2000/svg">
<circle cx="33" cy="33" r="33" fill="#B8E5FF"/>
<path d="M37.0958 23.564C37.0958 26.132 36.4838 29.828 35.2598 34.652C34.9958 35.612 34.6958 36.8 34.3598 38.216C34.0238 39.632 33.7478 40.772 33.5318 41.636C33.3158 42.476 33.0758 43.328 32.8118 44.192C32.3318 45.896 31.8638 46.748 31.4078 46.748C31.0718 46.748 30.7118 46.508 30.3278 46.028C29.9678 45.548 29.7878 45.056 29.7878 44.552C29.7878 44.024 30.0398 42.776 30.5438 40.808C31.0718 38.84 31.6598 36.152 32.3078 32.744C32.9558 29.336 33.3998 25.748 33.6398 21.98C33.7118 21.236 33.9878 20.864 34.4678 20.864C34.9958 20.864 35.5598 21.2 36.1598 21.872C36.7838 22.544 37.0958 23.108 37.0958 23.564Z" fill="black"/>
</svg>
