<svg width="152" height="43" viewBox="0 0 152 43" fill="none" xmlns="http://www.w3.org/2000/svg">
<path d="M16.6942 22.584H5.39019V34.14H2.40219V8.94001H5.39019V19.92H16.6942V8.94001H19.6822V34.14H16.6942V22.584ZM25.7161 17.544C26.7481 16.944 27.9121 16.512 29.2081 16.248C30.5041 15.984 31.7761 15.852 33.0241 15.852C34.2481 15.852 35.2441 16.044 36.0121 16.428C36.8041 16.812 37.4161 17.316 37.8481 17.94C38.3041 18.54 38.6041 19.236 38.7481 20.028C38.9161 20.796 39.0001 21.576 39.0001 22.368C39.0001 23.28 38.9761 24.252 38.9281 25.284C38.8801 26.316 38.8441 27.348 38.8201 28.38C38.8201 29.58 38.8921 30.72 39.0361 31.8H41.4481V34.14H36.6601L36.3361 31.44H36.1561C36.0121 31.656 35.7961 31.932 35.5081 32.268C35.2201 32.604 34.8361 32.94 34.3561 33.276C33.9001 33.588 33.3361 33.864 32.6641 34.104C31.9921 34.344 31.2001 34.464 30.2881 34.464C28.5121 34.464 27.1081 34.008 26.0761 33.096C25.0441 32.184 24.5281 30.936 24.5281 29.352C24.5281 28.128 24.7921 27.108 25.3201 26.292C25.8721 25.476 26.6521 24.852 27.6601 24.42C28.6681 23.988 29.8801 23.736 31.2961 23.664C32.7361 23.592 34.3441 23.688 36.1201 23.952C36.2401 22.848 36.2521 21.936 36.1561 21.216C36.0841 20.472 35.8921 19.884 35.5801 19.452C35.2921 19.02 34.8721 18.72 34.3201 18.552C33.7921 18.36 33.1321 18.264 32.3401 18.264C31.2601 18.264 30.2281 18.42 29.2441 18.732C28.2601 19.02 27.3841 19.32 26.6161 19.632L25.7161 17.544ZM31.0081 32.052C31.6801 32.052 32.3041 31.944 32.8801 31.728C33.4561 31.512 33.9601 31.236 34.3921 30.9C34.8241 30.564 35.1841 30.204 35.4721 29.82C35.7601 29.412 35.9761 29.028 36.1201 28.668V26.148C34.8721 25.932 33.7201 25.824 32.6641 25.824C31.6081 25.824 30.6961 25.944 29.9281 26.184C29.1601 26.4 28.5601 26.748 28.1281 27.228C27.6961 27.708 27.4801 28.332 27.4801 29.1C27.4801 29.892 27.7441 30.588 28.2721 31.188C28.8241 31.764 29.7361 32.052 31.0081 32.052ZM43.4861 8.94001H49.2461V18.192H49.4261C50.0501 17.4 50.8541 16.788 51.8381 16.356C52.8221 15.924 53.8901 15.708 55.0421 15.708C60.3221 15.708 62.9621 18.756 62.9621 24.852C62.9621 27.948 62.1101 30.324 60.4061 31.98C58.7021 33.612 56.2781 34.428 53.1341 34.428C51.6461 34.428 50.3021 34.284 49.1021 33.996C47.9021 33.708 47.0261 33.372 46.4741 32.988V11.352H43.4861V8.94001ZM54.6821 18.12C53.2421 18.12 52.0781 18.528 51.1901 19.344C50.3021 20.16 49.6541 21.312 49.2461 22.8V31.08C49.7981 31.368 50.4581 31.596 51.2261 31.764C51.9941 31.932 52.7981 32.016 53.6381 32.016C54.5981 32.016 55.4621 31.884 56.2301 31.62C57.0221 31.332 57.6941 30.9 58.2461 30.324C58.7981 29.724 59.2181 28.968 59.5061 28.056C59.8181 27.144 59.9741 26.064 59.9741 24.816C59.9741 23.904 59.8781 23.04 59.6861 22.224C59.4941 21.408 59.1821 20.7 58.7501 20.1C58.3421 19.476 57.8021 18.996 57.1301 18.66C56.4581 18.3 55.6421 18.12 54.6821 18.12ZM68.78 34.14V31.728H75.044V18.552H68.78V16.14H77.924V31.728H84.044V34.14H68.78ZM74.072 11.028C74.072 10.38 74.288 9.82801 74.72 9.37201C75.152 8.89201 75.704 8.65201 76.376 8.65201C77.072 8.65201 77.648 8.89201 78.104 9.37201C78.584 9.82801 78.824 10.38 78.824 11.028C78.824 11.652 78.584 12.18 78.104 12.612C77.648 13.044 77.072 13.26 76.376 13.26C75.704 13.26 75.152 13.044 74.72 12.612C74.288 12.18 74.072 11.652 74.072 11.028ZM87.7019 16.14H91.9859V12.576L94.7939 11.784V16.14H104.406V18.552H94.7939V27.048C94.7939 28.8 95.2139 30.096 96.0539 30.936C96.9179 31.776 98.1419 32.196 99.7259 32.196C100.806 32.196 101.742 31.992 102.534 31.584C103.35 31.176 104.082 30.732 104.73 30.252L105.666 32.376C104.826 33.048 103.818 33.588 102.642 33.996C101.49 34.404 100.302 34.608 99.0779 34.608C98.1179 34.608 97.2059 34.464 96.3419 34.176C95.5019 33.912 94.7579 33.492 94.1099 32.916C93.4619 32.34 92.9459 31.608 92.5619 30.72C92.1779 29.808 91.9859 28.728 91.9859 27.48V18.552H87.7019V16.14ZM119.368 31.368H120.736L125.2 16.14H128.116L123.112 32.304C122.848 33.144 122.572 34.092 122.284 35.148C122.02 36.228 121.636 37.236 121.132 38.172C120.628 39.108 119.944 39.9 119.08 40.548C118.216 41.196 117.088 41.52 115.696 41.52C115.384 41.52 115.048 41.484 114.688 41.412C114.352 41.34 114.016 41.244 113.68 41.124C113.344 41.028 113.032 40.908 112.744 40.764C112.456 40.62 112.24 40.476 112.096 40.332L113.104 37.74C113.248 37.86 113.44 37.98 113.68 38.1C113.944 38.22 114.22 38.316 114.508 38.388C114.82 38.484 115.12 38.556 115.408 38.604C115.696 38.676 115.936 38.712 116.128 38.712C117.928 38.712 119.152 37.188 119.8 34.14H117.388L109.828 16.14H113.068L119.368 31.368Z" fill="black"/>
<path d="M137.88 1.53L136.6 0L132 3.85L133.29 5.38L137.88 1.53ZM152 3.86L147.4 0L146.11 1.53L150.71 5.39L152 3.86ZM142 2.14C137.03 2.14 133 6.17 133 11.14C133 16.11 137.02 20.14 142 20.14C146.97 20.14 151 16.11 151 11.14C151 6.17 146.97 2.14 142 2.14ZM142 18.14C138.13 18.14 135 15.01 135 11.14C135 7.27 138.13 4.14 142 4.14C145.87 4.14 149 7.27 149 11.14C149 15.01 145.87 18.14 142 18.14ZM143 7.14H141V10.14H138V12.14H141V15.14H143V12.14H146V10.14H143V7.14Z" fill="black"/>
</svg>
