<svg width="203" height="95" viewBox="0 0 203 95" fill="none" xmlns="http://www.w3.org/2000/svg">
<g clip-path="url(#clip0)">
<path d="M25.6942 34.584H14.3902V46.14H11.4022V20.94H14.3902V31.92H25.6942V20.94H28.6822V46.14H25.6942V34.584ZM34.7161 29.544C35.7481 28.944 36.9121 28.512 38.2081 28.248C39.5041 27.984 40.7761 27.852 42.0241 27.852C43.2481 27.852 44.2441 28.044 45.0121 28.428C45.8041 28.812 46.4161 29.316 46.8481 29.94C47.3041 30.54 47.6041 31.236 47.7481 32.028C47.9161 32.796 48.0001 33.576 48.0001 34.368C48.0001 35.28 47.9761 36.252 47.9281 37.284C47.8801 38.316 47.8441 39.348 47.8201 40.38C47.8201 41.58 47.8921 42.72 48.0361 43.8H50.4481V46.14H45.6601L45.3361 43.44H45.1561C45.0121 43.656 44.7961 43.932 44.5081 44.268C44.2201 44.604 43.8361 44.94 43.3561 45.276C42.9001 45.588 42.3361 45.864 41.6641 46.104C40.9921 46.344 40.2001 46.464 39.2881 46.464C37.5121 46.464 36.1081 46.008 35.0761 45.096C34.0441 44.184 33.5281 42.936 33.5281 41.352C33.5281 40.128 33.7921 39.108 34.3201 38.292C34.8721 37.476 35.6521 36.852 36.6601 36.42C37.6681 35.988 38.8801 35.736 40.2961 35.664C41.7361 35.592 43.3441 35.688 45.1201 35.952C45.2401 34.848 45.2521 33.936 45.1561 33.216C45.0841 32.472 44.8921 31.884 44.5801 31.452C44.2921 31.02 43.8721 30.72 43.3201 30.552C42.7921 30.36 42.1321 30.264 41.3401 30.264C40.2601 30.264 39.2281 30.42 38.2441 30.732C37.2601 31.02 36.3841 31.32 35.6161 31.632L34.7161 29.544ZM40.0081 44.052C40.6801 44.052 41.3041 43.944 41.8801 43.728C42.4561 43.512 42.9601 43.236 43.3921 42.9C43.8241 42.564 44.1841 42.204 44.4721 41.82C44.7601 41.412 44.9761 41.028 45.1201 40.668V38.148C43.8721 37.932 42.7201 37.824 41.6641 37.824C40.6081 37.824 39.6961 37.944 38.9281 38.184C38.1601 38.4 37.5601 38.748 37.1281 39.228C36.6961 39.708 36.4801 40.332 36.4801 41.1C36.4801 41.892 36.7441 42.588 37.2721 43.188C37.8241 43.764 38.7361 44.052 40.0081 44.052ZM52.4861 20.94H58.2461V30.192H58.4261C59.0501 29.4 59.8541 28.788 60.8381 28.356C61.8221 27.924 62.8901 27.708 64.0421 27.708C69.3221 27.708 71.9621 30.756 71.9621 36.852C71.9621 39.948 71.1101 42.324 69.4061 43.98C67.7021 45.612 65.2781 46.428 62.1341 46.428C60.6461 46.428 59.3021 46.284 58.1021 45.996C56.9021 45.708 56.0261 45.372 55.4741 44.988V23.352H52.4861V20.94ZM63.6821 30.12C62.2421 30.12 61.0781 30.528 60.1901 31.344C59.3021 32.16 58.6541 33.312 58.2461 34.8V43.08C58.7981 43.368 59.4581 43.596 60.2261 43.764C60.9941 43.932 61.7981 44.016 62.6381 44.016C63.5981 44.016 64.4621 43.884 65.2301 43.62C66.0221 43.332 66.6941 42.9 67.2461 42.324C67.7981 41.724 68.2181 40.968 68.5061 40.056C68.8181 39.144 68.9741 38.064 68.9741 36.816C68.9741 35.904 68.8781 35.04 68.6861 34.224C68.4941 33.408 68.1821 32.7 67.7501 32.1C67.3421 31.476 66.8021 30.996 66.1301 30.66C65.4581 30.3 64.6421 30.12 63.6821 30.12ZM77.78 46.14V43.728H84.044V30.552H77.78V28.14H86.924V43.728H93.044V46.14H77.78ZM83.072 23.028C83.072 22.38 83.288 21.828 83.72 21.372C84.152 20.892 84.704 20.652 85.376 20.652C86.072 20.652 86.648 20.892 87.104 21.372C87.584 21.828 87.824 22.38 87.824 23.028C87.824 23.652 87.584 24.18 87.104 24.612C86.648 25.044 86.072 25.26 85.376 25.26C84.704 25.26 84.152 25.044 83.72 24.612C83.288 24.18 83.072 23.652 83.072 23.028ZM96.7019 28.14H100.986V24.576L103.794 23.784V28.14H113.406V30.552H103.794V39.048C103.794 40.8 104.214 42.096 105.054 42.936C105.918 43.776 107.142 44.196 108.726 44.196C109.806 44.196 110.742 43.992 111.534 43.584C112.35 43.176 113.082 42.732 113.73 42.252L114.666 44.376C113.826 45.048 112.818 45.588 111.642 45.996C110.49 46.404 109.302 46.608 108.078 46.608C107.118 46.608 106.206 46.464 105.342 46.176C104.502 45.912 103.758 45.492 103.11 44.916C102.462 44.34 101.946 43.608 101.562 42.72C101.178 41.808 100.986 40.728 100.986 39.48V30.552H96.7019V28.14ZM128.368 43.368H129.736L134.2 28.14H137.116L132.112 44.304C131.848 45.144 131.572 46.092 131.284 47.148C131.02 48.228 130.636 49.236 130.132 50.172C129.628 51.108 128.944 51.9 128.08 52.548C127.216 53.196 126.088 53.52 124.696 53.52C124.384 53.52 124.048 53.484 123.688 53.412C123.352 53.34 123.016 53.244 122.68 53.124C122.344 53.028 122.032 52.908 121.744 52.764C121.456 52.62 121.24 52.476 121.096 52.332L122.104 49.74C122.248 49.86 122.44 49.98 122.68 50.1C122.944 50.22 123.22 50.316 123.508 50.388C123.82 50.484 124.12 50.556 124.408 50.604C124.696 50.676 124.936 50.712 125.128 50.712C126.928 50.712 128.152 49.188 128.8 46.14H126.388L118.828 28.14H122.068L128.368 43.368Z" fill="black"/>
<path d="M146.88 13.53L145.6 12L141 15.85L142.29 17.38L146.88 13.53ZM161 15.86L156.4 12L155.11 13.53L159.71 17.39L161 15.86ZM151 14.14C146.03 14.14 142 18.17 142 23.14C142 28.11 146.02 32.14 151 32.14C155.97 32.14 160 28.11 160 23.14C160 18.17 155.97 14.14 151 14.14ZM151 30.14C147.13 30.14 144 27.01 144 23.14C144 19.27 147.13 16.14 151 16.14C154.87 16.14 158 19.27 158 23.14C158 27.01 154.87 30.14 151 30.14ZM152 19.14H150V22.14H147V24.14H150V27.14H152V24.14H155V22.14H152V19.14Z" fill="black"/>
<path d="M26.3834 64.232C26.138 64.1467 25.8714 64.0773 25.5834 64.024C25.306 63.96 25.0287 63.928 24.7514 63.928C23.706 63.928 22.9274 64.1733 22.4154 64.664C21.9034 65.1547 21.6474 65.9333 21.6474 67C21.6474 67.4693 21.722 67.8907 21.8714 68.264C22.0207 68.6267 22.234 68.936 22.5114 69.192C22.7887 69.448 23.1194 69.6453 23.5034 69.784C23.898 69.9227 24.33 69.992 24.7994 69.992C25.3007 69.992 25.786 69.9067 26.2554 69.736C26.7354 69.5653 27.1354 69.3413 27.4554 69.064L28.0154 69.992C27.866 70.12 27.6794 70.2533 27.4554 70.392C27.2314 70.5307 26.97 70.664 26.6714 70.792C26.3834 70.9093 26.058 71.0053 25.6954 71.08C25.3434 71.1547 24.9594 71.192 24.5434 71.192C23.85 71.192 23.2367 71.096 22.7034 70.904C22.1807 70.7013 21.7434 70.4187 21.3914 70.056C21.0394 69.6827 20.7727 69.24 20.5914 68.728C20.41 68.2053 20.3194 67.6293 20.3194 67C20.3194 66.328 20.41 65.7307 20.5914 65.208C20.7834 64.6853 21.0554 64.248 21.4074 63.896C21.7594 63.544 22.186 63.2773 22.6874 63.096C23.1887 62.904 23.7487 62.808 24.3674 62.808C25.1567 62.808 25.7967 62.8773 26.2874 63.016C26.7887 63.1547 27.21 63.3093 27.5514 63.48L27.5354 63.528V65.752H26.3834V64.232ZM29.7851 63H37.7211V65.992H36.6331V64.088H34.3771V69.928H36.3131V71H31.1291V69.928H33.1291V64.088H30.8731V65.992H29.7851V63ZM40.2749 63.624C40.7335 63.3573 41.2509 63.1653 41.8269 63.048C42.4029 62.9307 42.9682 62.872 43.5229 62.872C44.0669 62.872 44.5095 62.9573 44.8509 63.128C45.2029 63.2987 45.4749 63.5227 45.6669 63.8C45.8695 64.0667 46.0029 64.376 46.0669 64.728C46.1415 65.0693 46.1789 65.416 46.1789 65.768C46.1789 66.1733 46.1682 66.6053 46.1469 67.064C46.1255 67.5227 46.1095 67.9813 46.0989 68.44C46.0989 68.9733 46.1309 69.48 46.1949 69.96H47.2669V71H45.1389L44.9949 69.8H44.9149C44.8509 69.896 44.7549 70.0187 44.6269 70.168C44.4989 70.3173 44.3282 70.4667 44.1149 70.616C43.9122 70.7547 43.6615 70.8773 43.3629 70.984C43.0642 71.0907 42.7122 71.144 42.3069 71.144C41.5175 71.144 40.8935 70.9413 40.4349 70.536C39.9762 70.1307 39.7469 69.576 39.7469 68.872C39.7469 68.328 39.8642 67.8747 40.0989 67.512C40.3442 67.1493 40.6909 66.872 41.1389 66.68C41.5869 66.488 42.1255 66.376 42.7549 66.344C43.3949 66.312 44.1095 66.3547 44.8989 66.472C44.9522 65.9813 44.9575 65.576 44.9149 65.256C44.8829 64.9253 44.7975 64.664 44.6589 64.472C44.5309 64.28 44.3442 64.1467 44.0989 64.072C43.8642 63.9867 43.5709 63.944 43.2189 63.944C42.7389 63.944 42.2802 64.0133 41.8429 64.152C41.4055 64.28 41.0162 64.4133 40.6749 64.552L40.2749 63.624ZM42.6269 70.072C42.9255 70.072 43.2029 70.024 43.4589 69.928C43.7149 69.832 43.9389 69.7093 44.1309 69.56C44.3229 69.4107 44.4829 69.2507 44.6109 69.08C44.7389 68.8987 44.8349 68.728 44.8989 68.568V67.448C44.3442 67.352 43.8322 67.304 43.3629 67.304C42.8935 67.304 42.4882 67.3573 42.1469 67.464C41.8055 67.56 41.5389 67.7147 41.3469 67.928C41.1549 68.1413 41.0589 68.4187 41.0589 68.76C41.0589 69.112 41.1762 69.4213 41.4109 69.688C41.6562 69.944 42.0615 70.072 42.6269 70.072ZM55.0846 67.448H50.7806V71H49.5486V63H50.7806V66.328H55.0846V63H56.3326V71H55.0846V67.448ZM60.7584 69.896C60.8757 69.9173 61.0144 69.9333 61.1744 69.944C61.345 69.9547 61.5157 69.9707 61.6864 69.992C61.857 70.0027 62.0224 70.0133 62.1824 70.024C62.3424 70.024 62.4704 70.024 62.5664 70.024C63.3664 70.024 63.953 69.8853 64.3264 69.608C64.6997 69.32 64.8864 68.9467 64.8864 68.488C64.8864 68.0827 64.705 67.736 64.3424 67.448C63.9797 67.16 63.409 67.016 62.6304 67.016C62.2784 67.016 61.9317 67.0213 61.5904 67.032C61.2597 67.0427 60.9824 67.0747 60.7584 67.128V69.896ZM60.7584 66.088C61.0464 66.0453 61.3504 66.0187 61.6704 66.008C62.001 65.9867 62.3797 65.976 62.8064 65.976C63.425 65.976 63.9477 66.04 64.3744 66.168C64.8117 66.2853 65.1637 66.4507 65.4304 66.664C65.7077 66.8773 65.905 67.128 66.0224 67.416C66.1504 67.6933 66.2144 67.9973 66.2144 68.328C66.2144 69.2987 65.8837 70.0027 65.2224 70.44C64.5717 70.8773 63.5744 71.096 62.2304 71.096C62.0597 71.096 61.857 71.0907 61.6224 71.08C61.3984 71.0693 61.1637 71.0533 60.9184 71.032C60.6837 71.0213 60.4437 71.0107 60.1984 71C59.953 70.9787 59.729 70.9573 59.5264 70.936V63H60.7584V66.088ZM80.9699 66.904L77.8819 63H79.4819L81.7859 66.008L84.1539 63H85.5939L82.5059 66.84L85.7859 71H84.2499L81.7059 67.72L79.1139 71H77.6579L80.9699 66.904ZM87.4276 67C87.4276 65.7093 87.7636 64.6907 88.4356 63.944C89.1076 63.1867 90.0676 62.808 91.3156 62.808C91.9876 62.808 92.5636 62.92 93.0436 63.144C93.5343 63.3573 93.9396 63.6507 94.2596 64.024C94.5796 64.3973 94.8143 64.84 94.9636 65.352C95.1236 65.864 95.2036 66.4133 95.2036 67C95.2036 67.64 95.1183 68.2213 94.9476 68.744C94.777 69.256 94.5263 69.6933 94.1956 70.056C93.865 70.4187 93.4543 70.7013 92.9636 70.904C92.4836 71.096 91.9343 71.192 91.3156 71.192C90.6543 71.192 90.0783 71.0853 89.5876 70.872C89.097 70.648 88.6916 70.3493 88.3716 69.976C88.0516 69.6027 87.8116 69.16 87.6516 68.648C87.5023 68.136 87.4276 67.5867 87.4276 67ZM88.7556 67C88.7556 67.3733 88.7983 67.7467 88.8836 68.12C88.9796 68.4933 89.129 68.8293 89.3316 69.128C89.5343 69.4267 89.7956 69.6667 90.1156 69.848C90.4463 70.0293 90.8463 70.12 91.3156 70.12C92.169 70.12 92.809 69.8587 93.2356 69.336C93.673 68.8027 93.8916 68.024 93.8916 67C93.8916 66.616 93.8436 66.2427 93.7476 65.88C93.6623 65.5067 93.513 65.1707 93.2996 64.872C93.097 64.5733 92.8303 64.3333 92.4996 64.152C92.1796 63.9707 91.785 63.88 91.3156 63.88C90.4623 63.88 89.8223 64.1413 89.3956 64.664C88.969 65.1867 88.7556 65.9653 88.7556 67ZM97.8214 63.752L97.8054 63.704C97.9867 63.5973 98.1787 63.496 98.3814 63.4C98.5947 63.2933 98.8294 63.2027 99.0854 63.128C99.352 63.0427 99.6507 62.9733 99.9814 62.92C100.312 62.8667 100.691 62.84 101.117 62.84C101.555 62.84 101.96 62.888 102.333 62.984C102.707 63.0693 103.032 63.1973 103.309 63.368C103.587 63.5387 103.8 63.752 103.949 64.008C104.109 64.2533 104.189 64.536 104.189 64.856C104.189 65.0267 104.152 65.208 104.077 65.4C104.013 65.5813 103.912 65.7573 103.773 65.928C103.635 66.0987 103.469 66.2533 103.277 66.392C103.085 66.5307 102.867 66.6373 102.621 66.712V66.776C103.325 66.8933 103.816 67.1173 104.093 67.448C104.381 67.7787 104.525 68.216 104.525 68.76C104.525 69.1013 104.445 69.416 104.285 69.704C104.125 69.992 103.885 70.2427 103.565 70.456C103.256 70.6693 102.867 70.84 102.397 70.968C101.939 71.0853 101.4 71.144 100.781 71.144C100.323 71.144 99.9067 71.1013 99.5334 71.016C99.16 70.9307 98.8294 70.824 98.5414 70.696C98.264 70.568 98.024 70.4293 97.8214 70.28C97.6294 70.1307 97.48 69.992 97.3734 69.864L98.0134 68.856C98.1307 68.984 98.2747 69.1227 98.4454 69.272C98.616 69.4107 98.824 69.5387 99.0694 69.656C99.3254 69.7733 99.6134 69.8747 99.9334 69.96C100.264 70.0347 100.643 70.072 101.069 70.072C101.368 70.072 101.645 70.0453 101.901 69.992C102.168 69.928 102.397 69.8427 102.589 69.736C102.792 69.6187 102.952 69.4747 103.069 69.304C103.187 69.1227 103.245 68.9147 103.245 68.68C103.245 68.2747 103.059 67.9653 102.685 67.752C102.323 67.5387 101.72 67.432 100.877 67.432H99.9654V66.392H101.101C101.315 66.392 101.528 66.36 101.741 66.296C101.955 66.2213 102.147 66.1307 102.317 66.024C102.488 65.9067 102.627 65.7733 102.733 65.624C102.84 65.464 102.893 65.2987 102.893 65.128C102.893 64.9147 102.84 64.7333 102.733 64.584C102.627 64.424 102.477 64.296 102.285 64.2C102.104 64.104 101.885 64.0347 101.629 63.992C101.384 63.9387 101.123 63.912 100.845 63.912C100.419 63.912 100.045 63.9547 99.7254 64.04C99.4054 64.1147 99.1334 64.2107 98.9094 64.328V65.656H97.8214V63.752ZM112.263 67.88H110.343L108.327 71H106.727V69.928H107.559L109.015 67.752C108.812 67.6987 108.615 67.6133 108.423 67.496C108.231 67.368 108.055 67.2133 107.895 67.032C107.746 66.84 107.623 66.6213 107.527 66.376C107.442 66.12 107.399 65.8373 107.399 65.528C107.399 65.048 107.495 64.6373 107.687 64.296C107.879 63.944 108.146 63.656 108.487 63.432C108.828 63.208 109.234 63.048 109.703 62.952C110.172 62.8453 110.69 62.792 111.255 62.792C111.66 62.792 112.044 62.824 112.407 62.888C112.77 62.9413 113.138 63 113.511 63.064V71H112.263V67.88ZM112.263 66.92V64.072C112.114 64.0187 111.938 63.9707 111.735 63.928C111.532 63.8853 111.356 63.864 111.207 63.864C110.396 63.864 109.778 63.992 109.351 64.248C108.924 64.4933 108.711 64.888 108.711 65.432C108.711 65.8693 108.839 66.2107 109.095 66.456C109.351 66.6907 109.66 66.8453 110.023 66.92H112.263ZM122.289 65.976L122.337 64.92H122.289L117.793 71H116.657V63H117.905V68.168L117.857 69.176H117.921L122.385 63H123.537V71H122.289V65.976ZM131.835 67.448H127.531V71H126.299V63H127.531V66.328H131.835V63H133.083V71H131.835V67.448ZM135.396 67C135.396 65.7093 135.732 64.6907 136.404 63.944C137.076 63.1867 138.036 62.808 139.284 62.808C139.956 62.808 140.532 62.92 141.012 63.144C141.503 63.3573 141.908 63.6507 142.228 64.024C142.548 64.3973 142.783 64.84 142.932 65.352C143.092 65.864 143.172 66.4133 143.172 67C143.172 67.64 143.087 68.2213 142.916 68.744C142.746 69.256 142.495 69.6933 142.164 70.056C141.834 70.4187 141.423 70.7013 140.932 70.904C140.452 71.096 139.903 71.192 139.284 71.192C138.623 71.192 138.047 71.0853 137.556 70.872C137.066 70.648 136.66 70.3493 136.34 69.976C136.02 69.6027 135.78 69.16 135.62 68.648C135.471 68.136 135.396 67.5867 135.396 67ZM136.724 67C136.724 67.3733 136.767 67.7467 136.852 68.12C136.948 68.4933 137.098 68.8293 137.3 69.128C137.503 69.4267 137.764 69.6667 138.084 69.848C138.415 70.0293 138.815 70.12 139.284 70.12C140.138 70.12 140.778 69.8587 141.204 69.336C141.642 68.8027 141.86 68.024 141.86 67C141.86 66.616 141.812 66.2427 141.716 65.88C141.631 65.5067 141.482 65.1707 141.268 64.872C141.066 64.5733 140.799 64.3333 140.468 64.152C140.148 63.9707 139.754 63.88 139.284 63.88C138.431 63.88 137.791 64.1413 137.364 64.664C136.938 65.1867 136.724 65.9653 136.724 67ZM151.406 66.248L151.438 65.112H151.358L149.054 68.776H148.606L146.27 65.112H146.206L146.286 66.232V71H145.102V63H146.366L148.91 67.016H148.942L151.374 63H152.654V71H151.406V66.248ZM170.29 64.232C170.044 64.1467 169.778 64.0773 169.49 64.024C169.212 63.96 168.935 63.928 168.658 63.928C167.612 63.928 166.834 64.1733 166.322 64.664C165.81 65.1547 165.554 65.9333 165.554 67C165.554 67.4693 165.628 67.8907 165.778 68.264C165.927 68.6267 166.14 68.936 166.418 69.192C166.695 69.448 167.026 69.6453 167.41 69.784C167.804 69.9227 168.236 69.992 168.706 69.992C169.207 69.992 169.692 69.9067 170.162 69.736C170.642 69.5653 171.042 69.3413 171.362 69.064L171.922 69.992C171.772 70.12 171.586 70.2533 171.362 70.392C171.138 70.5307 170.876 70.664 170.578 70.792C170.29 70.9093 169.964 71.0053 169.602 71.08C169.25 71.1547 168.866 71.192 168.45 71.192C167.756 71.192 167.143 71.096 166.61 70.904C166.087 70.7013 165.65 70.4187 165.298 70.056C164.946 69.6827 164.679 69.24 164.498 68.728C164.316 68.2053 164.226 67.6293 164.226 67C164.226 66.328 164.316 65.7307 164.498 65.208C164.69 64.6853 164.962 64.248 165.314 63.896C165.666 63.544 166.092 63.2773 166.594 63.096C167.095 62.904 167.655 62.808 168.274 62.808C169.063 62.808 169.703 62.8773 170.194 63.016C170.695 63.1547 171.116 63.3093 171.458 63.48L171.442 63.528V65.752H170.29V64.232ZM181.323 69.992C181.131 70.1627 180.902 70.3227 180.635 70.472C180.379 70.6213 180.097 70.7493 179.787 70.856C179.478 70.9627 179.153 71.0427 178.811 71.096C178.481 71.16 178.145 71.192 177.803 71.192C177.163 71.192 176.598 71.096 176.107 70.904C175.617 70.7013 175.206 70.4187 174.875 70.056C174.545 69.6827 174.294 69.24 174.123 68.728C173.953 68.216 173.867 67.64 173.867 67C173.867 66.328 173.958 65.7307 174.139 65.208C174.331 64.6853 174.603 64.248 174.955 63.896C175.307 63.544 175.734 63.2773 176.235 63.096C176.737 62.904 177.297 62.808 177.915 62.808C178.363 62.808 178.806 62.8667 179.243 62.984C179.681 63.1013 180.065 63.3253 180.395 63.656C180.737 63.976 180.998 64.424 181.179 65C181.361 65.5653 181.425 66.3013 181.371 67.208H175.179C175.179 68.168 175.435 68.888 175.947 69.368C176.47 69.8373 177.163 70.072 178.027 70.072C178.315 70.072 178.598 70.04 178.875 69.976C179.163 69.9013 179.435 69.816 179.691 69.72C179.947 69.624 180.171 69.5173 180.363 69.4C180.566 69.2827 180.721 69.176 180.827 69.08L181.323 69.992ZM177.947 63.864C177.595 63.864 177.259 63.9013 176.939 63.976C176.63 64.0507 176.353 64.1787 176.107 64.36C175.873 64.5307 175.675 64.76 175.515 65.048C175.366 65.3253 175.27 65.672 175.227 66.088H180.203C180.15 65.384 179.921 64.84 179.515 64.456C179.121 64.0613 178.598 63.864 177.947 63.864ZM184.581 64.456C184.986 63.9227 185.429 63.5493 185.909 63.336C186.4 63.1227 187.008 63.016 187.733 63.016C188.832 63.016 189.674 63.3467 190.261 64.008C190.848 64.6693 191.141 65.608 191.141 66.824C191.141 68.232 190.8 69.3147 190.117 70.072C189.434 70.8187 188.48 71.192 187.253 71.192C184.661 71.192 183.365 69.512 183.365 66.152C183.365 65.2347 183.413 64.4507 183.509 63.8C183.616 63.1493 183.765 62.6 183.957 62.152C184.149 61.704 184.384 61.3467 184.661 61.08C184.938 60.8133 185.253 60.6053 185.605 60.456C185.957 60.296 186.341 60.184 186.757 60.12C187.173 60.056 187.621 60.0027 188.101 59.96C188.72 59.9173 189.194 59.8587 189.525 59.784C189.856 59.7093 190.128 59.5813 190.341 59.4L190.533 60.504C190.416 60.6 190.288 60.68 190.149 60.744C190.01 60.808 189.84 60.8613 189.637 60.904C189.434 60.9467 189.194 60.984 188.917 61.016C188.65 61.048 188.33 61.0747 187.957 61.096C187.434 61.128 186.97 61.1813 186.565 61.256C186.16 61.3307 185.813 61.4853 185.525 61.72C185.248 61.944 185.024 62.2747 184.853 62.712C184.693 63.1387 184.586 63.72 184.533 64.456H184.581ZM184.693 67.016C184.693 67.4107 184.741 67.7947 184.837 68.168C184.944 68.5413 185.098 68.872 185.301 69.16C185.514 69.448 185.781 69.6827 186.101 69.864C186.421 70.0347 186.805 70.12 187.253 70.12C188.106 70.12 188.746 69.8427 189.173 69.288C189.6 68.7333 189.813 67.944 189.813 66.92C189.813 66.5253 189.765 66.1573 189.669 65.816C189.584 65.4747 189.45 65.176 189.269 64.92C189.088 64.664 188.848 64.4613 188.549 64.312C188.261 64.1627 187.92 64.088 187.525 64.088C186.533 64.088 185.813 64.3387 185.365 64.84C184.917 65.3307 184.693 66.056 184.693 67.016ZM198.607 67.88H196.687L194.671 71H193.071V69.928H193.903L195.359 67.752C195.156 67.6987 194.959 67.6133 194.767 67.496C194.575 67.368 194.399 67.2133 194.239 67.032C194.09 66.84 193.967 66.6213 193.871 66.376C193.786 66.12 193.743 65.8373 193.743 65.528C193.743 65.048 193.839 64.6373 194.031 64.296C194.223 63.944 194.49 63.656 194.831 63.432C195.172 63.208 195.578 63.048 196.047 62.952C196.516 62.8453 197.034 62.792 197.599 62.792C198.004 62.792 198.388 62.824 198.751 62.888C199.114 62.9413 199.482 63 199.855 63.064V71H198.607V67.88ZM198.607 66.92V64.072C198.458 64.0187 198.282 63.9707 198.079 63.928C197.876 63.8853 197.7 63.864 197.551 63.864C196.74 63.864 196.122 63.992 195.695 64.248C195.268 64.4933 195.055 64.888 195.055 65.432C195.055 65.8693 195.183 66.2107 195.439 66.456C195.695 66.6907 196.004 66.8453 196.367 66.92H198.607Z" fill="black"/>
</g>
<defs>
<clipPath id="clip0">
<rect width="203" height="95" fill="white"/>
</clipPath>
</defs>
</svg>
